<?xml version="1.0" encoding="UTF-8"?> <svg xmlns="http://www.w3.org/2000/svg" id="Layer_2" data-name="Layer 2" viewBox="0 0 72 72"><defs><style> .cls-1 { fill: #fff; } .cls-2 { fill: #24c780; } </style></defs><g id="Layer_1-2" data-name="Layer 1"><rect class="cls-2" width="72" height="72" rx="16" ry="16"></rect><path class="cls-1" d="M36.28,25.6c7.73,0,13.99-1.24,13.99-2.8s-6.26-2.8-13.99-2.8-13.99,1.24-13.99,2.8,6.26,2.8,13.99,2.8Z"></path><path class="cls-1" d="M50.27,31.04c0,1.56-6.26,2.8-13.99,2.8s-13.99-1.24-13.99-2.8v-2.49c0,1.5,6.26,2.75,13.99,2.75s13.99-1.24,13.99-2.75v2.49Z"></path><path class="cls-1" d="M37.8,42.03h-1.51c-7.73,0-13.99-1.24-13.99-2.75v-2.54c0,1.56,6.26,2.8,13.99,2.8h2.09s-.26,.67-.42,1.24c-.16,.57-.16,1.24-.16,1.24Z"></path><path class="cls-1" d="M41.24,50.12c-1.57,.1-3.24,.16-4.96,.16-7.73,0-13.99-1.24-13.99-2.75v-2.54c0,1.56,6.26,2.8,13.99,2.8h2.87c.24,.42,.52,.82,.84,1.19,.38,.42,.8,.8,1.25,1.14h0Z"></path><path class="cls-1" d="M51.11,49.39c-1.46,.86-3.16,1.21-4.84,1.01-1.68-.2-3.25-.95-4.46-2.13-1.21-1.18-1.99-2.72-2.22-4.39-.23-1.67,.1-3.36,.94-4.82,.84-1.46,2.14-2.6,3.71-3.25,1.56-.65,3.3-.76,4.94-.33,1.64,.43,3.08,1.39,4.11,2.73,1.03,1.34,1.59,2.97,1.58,4.65,0,1.44-.41,2.84-1.2,4.04l4.33,4.3-2.56,2.54-4.33-4.35Zm-3.92-10.83c-.86-.01-1.7,.23-2.42,.7-.72,.47-1.28,1.13-1.62,1.92-.34,.79-.43,1.65-.27,2.49,.16,.84,.57,1.61,1.17,2.22,.6,.61,1.38,1.02,2.22,1.19,.84,.17,1.72,.09,2.51-.24,.79-.32,1.47-.88,1.95-1.58,.48-.71,.73-1.54,.73-2.4,0-1.13-.45-2.22-1.25-3.02-.8-.81-1.89-1.26-3.03-1.28h0Z"></path></g></svg> 