<svg xmlns="http://www.w3.org/2000/svg" xmlns:xlink="http://www.w3.org/1999/xlink" width="500" zoomAndPan="magnify" viewBox="0 0 375 374.999991" height="500" preserveAspectRatio="xMidYMid meet" version="1.0"><defs><g/></defs><g fill="#ffffff" fill-opacity="1"><g transform="translate(73.672275, 283.309047)"><g><path d="M 4.375 -195.625 L 13.578125 -195.625 L 86.359375 -11.453125 L 159.125 -195.625 L 168.21875 -195.625 L 90.96875 0 L 81.75 0 Z M 92.265625 -42.53125 L 87.421875 -31.65625 L 22.6875 -195.625 L 31.78125 -195.625 Z M 101.359375 -65.796875 L 96.875 -54.109375 L 41 -195.625 L 50.203125 -195.625 Z M 110.34375 -89.421875 L 105.84375 -77.5 L 59.296875 -195.625 L 68.40625 -195.625 Z M 213.9375 -195.625 L 223.15625 -195.625 L 145.78125 0 L 136.6875 0 Z M 195.75 -195.625 L 204.84375 -195.625 L 127.46875 0 L 118.375 0 Z M 177.3125 -195.625 L 186.53125 -195.625 L 109.15625 0 L 100.0625 0 Z M 177.3125 -195.625 "/></g></g></g></svg>